<svg xmlns="http://www.w3.org/2000/svg" xmlns:xlink="http://www.w3.org/1999/xlink" width="500" zoomAndPan="magnify" viewBox="0 0 375 374.999991" height="500" preserveAspectRatio="xMidYMid meet" version="1.0"><defs><g/><clipPath id="f8211ecc1d"><path d="M 111.28125 105.308594 L 261.09375 105.308594 L 261.09375 263.789062 L 111.28125 263.789062 Z M 111.28125 105.308594 " clip-rule="nonzero"/></clipPath><clipPath id="62ca091516"><path d="M 0.28125 0.308594 L 150.09375 0.308594 L 150.09375 158.789062 L 0.28125 158.789062 Z M 0.28125 0.308594 " clip-rule="nonzero"/></clipPath><clipPath id="4e95f8c747"><rect x="0" width="151" y="0" height="159"/></clipPath><clipPath id="80583fa2a4"><path d="M 170.207031 168.59375 L 219.757812 168.59375 L 219.757812 209.5 L 170.207031 209.5 Z M 170.207031 168.59375 " clip-rule="nonzero"/></clipPath><clipPath id="64f7b7e7f8"><path d="M 0.207031 0.59375 L 49.757812 0.59375 L 49.757812 41.5 L 0.207031 41.5 Z M 0.207031 0.59375 " clip-rule="nonzero"/></clipPath><clipPath id="1b69de2b13"><rect x="0" width="50" y="0" height="42"/></clipPath><clipPath id="798965a779"><path d="M 165 128.792969 L 212 128.792969 L 212 156 L 165 156 Z M 165 128.792969 " clip-rule="nonzero"/></clipPath><clipPath id="4c22fd9da0"><path d="M 144.792969 154 L 230.292969 154 L 230.292969 249.542969 L 144.792969 249.542969 Z M 144.792969 154 " clip-rule="nonzero"/></clipPath></defs><g clip-path="url(#f8211ecc1d)"><g transform="matrix(1, 0, 0, 1, 111, 105)"><g clip-path="url(#4e95f8c747)"><g clip-path="url(#62ca091516)"><path fill="#a4c3b2" d="M 0.28125 0.308594 L 150.09375 0.308594 L 150.09375 158.898438 L 0.28125 158.898438 Z M 0.28125 0.308594 " fill-opacity="1" fill-rule="nonzero"/></g></g></g></g><g clip-path="url(#80583fa2a4)"><g transform="matrix(1, 0, 0, 1, 170, 168)"><g clip-path="url(#1b69de2b13)"><g clip-path="url(#64f7b7e7f8)"><path fill="#202020" d="M 0.207031 0.59375 L 49.746094 0.59375 L 49.746094 41.5 L 0.207031 41.5 Z M 0.207031 0.59375 " fill-opacity="1" fill-rule="nonzero"/></g></g></g></g><g clip-path="url(#798965a779)"><path fill="#6d6e80" d="M 209.71875 149.257812 C 209.679688 148.578125 209.605469 147.898438 209.503906 147.222656 C 209.402344 146.546875 209.265625 145.875 209.097656 145.214844 C 208.933594 144.550781 208.734375 143.898438 208.507812 143.253906 C 208.277344 142.609375 208.019531 141.976562 207.730469 141.355469 C 207.441406 140.738281 207.125 140.132812 206.777344 139.542969 C 206.433594 138.953125 206.058594 138.378906 205.660156 137.828125 C 205.257812 137.273438 204.832031 136.738281 204.382812 136.226562 C 203.929688 135.710938 203.457031 135.21875 202.957031 134.75 C 202.460938 134.28125 201.941406 133.839844 201.402344 133.417969 C 200.863281 133 200.304688 132.605469 199.726562 132.238281 C 199.148438 131.875 198.554688 131.535156 197.945312 131.226562 C 197.335938 130.914062 196.714844 130.632812 196.078125 130.382812 C 195.441406 130.132812 194.796875 129.910156 194.140625 129.722656 C 193.480469 129.53125 192.816406 129.375 192.144531 129.246094 C 191.472656 129.121094 190.796875 129.027344 190.117188 128.964844 C 189.4375 128.902344 188.753906 128.871094 188.070312 128.875 C 187.386719 128.875 186.703125 128.910156 186.023438 128.980469 C 185.34375 129.046875 184.667969 129.144531 183.996094 129.277344 C 183.324219 129.40625 182.664062 129.570312 182.007812 129.765625 C 181.351562 129.957031 180.707031 130.183594 180.074219 130.4375 C 179.4375 130.695312 178.816406 130.980469 178.210938 131.292969 C 177.605469 131.609375 177.011719 131.949219 176.4375 132.320312 C 175.863281 132.691406 175.308594 133.089844 174.769531 133.511719 C 174.234375 133.933594 173.71875 134.382812 173.222656 134.855469 C 172.730469 135.328125 172.257812 135.820312 171.8125 136.339844 C 171.363281 136.855469 170.941406 137.390625 170.542969 137.949219 C 170.148438 138.507812 169.777344 139.082031 169.4375 139.671875 C 169.09375 140.265625 168.78125 140.871094 168.496094 141.492188 C 168.214844 142.113281 167.957031 142.75 167.734375 143.394531 C 167.511719 144.039062 167.316406 144.695312 167.15625 145.359375 C 166.992188 146.023438 166.863281 146.695312 166.765625 147.371094 C 166.664062 148.046875 166.601562 148.726562 166.566406 149.410156 C 166.371094 149.542969 166.191406 149.691406 166.027344 149.863281 C 165.863281 150.03125 165.722656 150.21875 165.597656 150.417969 C 165.476562 150.617188 165.375 150.832031 165.300781 151.054688 C 165.222656 151.277344 165.171875 151.503906 165.144531 151.738281 C 165.117188 151.972656 165.113281 152.207031 165.136719 152.441406 C 165.160156 152.675781 165.210938 152.902344 165.28125 153.128906 C 165.355469 153.351562 165.453125 153.5625 165.570312 153.765625 C 165.691406 153.96875 165.832031 154.15625 165.992188 154.332031 C 166.152344 154.503906 166.328125 154.65625 166.519531 154.789062 C 166.714844 154.925781 166.921875 155.039062 167.136719 155.125 C 167.355469 155.214844 167.582031 155.28125 167.8125 155.324219 C 168.042969 155.363281 168.277344 155.378906 168.511719 155.371094 C 168.75 155.359375 168.980469 155.324219 169.207031 155.265625 C 169.433594 155.207031 169.652344 155.121094 169.863281 155.015625 C 170.074219 154.90625 170.269531 154.777344 170.449219 154.628906 C 170.632812 154.480469 170.796875 154.3125 170.941406 154.125 C 171.085938 153.941406 171.210938 153.742188 171.3125 153.53125 C 171.414062 153.316406 171.492188 153.097656 171.546875 152.867188 C 171.601562 152.640625 171.628906 152.40625 171.632812 152.171875 C 171.636719 151.9375 171.617188 151.703125 171.570312 151.472656 C 171.523438 151.242188 171.453125 151.019531 171.359375 150.800781 C 171.261719 150.585938 171.148438 150.382812 171.007812 150.195312 C 170.867188 150.003906 170.710938 149.832031 170.535156 149.675781 C 170.359375 149.519531 170.167969 149.382812 169.960938 149.269531 C 170.035156 148.121094 170.214844 146.988281 170.5 145.875 C 170.789062 144.761719 171.179688 143.683594 171.667969 142.644531 C 172.160156 141.601562 172.746094 140.617188 173.425781 139.6875 C 174.101562 138.757812 174.863281 137.898438 175.703125 137.113281 C 176.542969 136.328125 177.449219 135.628906 178.421875 135.015625 C 179.398438 134.398438 180.417969 133.882812 181.488281 133.460938 C 182.5625 133.042969 183.664062 132.726562 184.792969 132.511719 C 185.925781 132.300781 187.066406 132.199219 188.214844 132.203125 C 189.367188 132.207031 190.507812 132.320312 191.636719 132.539062 C 192.765625 132.761719 193.867188 133.085938 194.933594 133.511719 C 196 133.941406 197.019531 134.464844 197.988281 135.089844 C 198.957031 135.710938 199.859375 136.417969 200.695312 137.207031 C 201.527344 138 202.28125 138.863281 202.953125 139.800781 C 203.621094 140.734375 204.199219 141.722656 204.683594 142.769531 C 205.167969 143.8125 205.546875 144.894531 205.828125 146.007812 C 206.105469 147.125 206.277344 148.257812 206.34375 149.40625 C 206.144531 149.539062 205.964844 149.691406 205.804688 149.859375 C 205.640625 150.03125 205.496094 150.214844 205.375 150.417969 C 205.25 150.617188 205.152344 150.828125 205.074219 151.054688 C 205 151.277344 204.945312 151.503906 204.917969 151.738281 C 204.890625 151.972656 204.890625 152.207031 204.914062 152.441406 C 204.9375 152.675781 204.984375 152.90625 205.058594 153.128906 C 205.132812 153.351562 205.230469 153.566406 205.347656 153.769531 C 205.46875 153.972656 205.609375 154.160156 205.769531 154.332031 C 205.929688 154.503906 206.109375 154.660156 206.300781 154.792969 C 206.496094 154.925781 206.703125 155.039062 206.917969 155.128906 C 207.136719 155.21875 207.363281 155.28125 207.59375 155.324219 C 207.828125 155.363281 208.0625 155.378906 208.296875 155.367188 C 208.53125 155.355469 208.765625 155.320312 208.992188 155.261719 C 209.21875 155.199219 209.4375 155.117188 209.648438 155.007812 C 209.855469 154.898438 210.050781 154.769531 210.234375 154.621094 C 210.414062 154.46875 210.578125 154.300781 210.722656 154.113281 C 210.867188 153.929688 210.992188 153.730469 211.09375 153.515625 C 211.195312 153.304688 211.273438 153.082031 211.324219 152.855469 C 211.378906 152.625 211.40625 152.390625 211.410156 152.15625 C 211.414062 151.921875 211.390625 151.6875 211.34375 151.457031 C 211.296875 151.226562 211.222656 151 211.128906 150.785156 C 211.03125 150.570312 210.914062 150.367188 210.773438 150.179688 C 210.632812 149.988281 210.476562 149.816406 210.296875 149.664062 C 210.121094 149.507812 209.925781 149.371094 209.722656 149.257812 Z M 209.71875 149.257812 " fill-opacity="1" fill-rule="nonzero"/></g><path fill="#e9c2c6" d="M 229.691406 248.757812 L 145.308594 248.757812 L 147.878906 155.378906 L 227.359375 155.378906 Z M 229.691406 248.757812 " fill-opacity="1" fill-rule="nonzero"/><g clip-path="url(#4c22fd9da0)"><path fill="#6d6e80" d="M 229.691406 249.265625 L 145.308594 249.265625 C 145.167969 249.265625 145.046875 249.214844 144.945312 249.109375 C 144.847656 249.007812 144.796875 248.886719 144.800781 248.742188 L 147.378906 155.367188 C 147.382812 155.226562 147.433594 155.109375 147.53125 155.015625 C 147.628906 154.917969 147.75 154.871094 147.886719 154.867188 L 227.359375 154.867188 C 227.496094 154.867188 227.613281 154.917969 227.714844 155.015625 C 227.8125 155.109375 227.863281 155.226562 227.867188 155.367188 L 230.203125 248.746094 C 230.207031 248.886719 230.15625 249.011719 230.058594 249.113281 C 229.957031 249.214844 229.835938 249.265625 229.691406 249.265625 Z M 145.832031 248.246094 L 229.171875 248.246094 L 226.859375 155.886719 L 148.375 155.886719 Z M 145.832031 248.246094 " fill-opacity="1" fill-rule="nonzero"/></g><path fill="#e2e2e5" d="M 227.359375 155.378906 L 147.859375 155.378906 L 153.152344 144.957031 L 222.472656 144.957031 Z M 227.359375 155.378906 " fill-opacity="1" fill-rule="nonzero"/><path fill="#6d6e80" d="M 227.359375 155.886719 L 147.859375 155.886719 C 147.773438 155.886719 147.6875 155.863281 147.613281 155.820312 C 147.535156 155.777344 147.472656 155.71875 147.425781 155.644531 C 147.378906 155.570312 147.355469 155.488281 147.351562 155.398438 C 147.347656 155.308594 147.367188 155.226562 147.40625 155.148438 L 152.699219 144.730469 C 152.792969 144.542969 152.945312 144.449219 153.152344 144.449219 L 222.472656 144.449219 C 222.6875 144.449219 222.84375 144.546875 222.933594 144.742188 L 227.820312 155.164062 C 227.898438 155.332031 227.886719 155.496094 227.789062 155.652344 C 227.6875 155.808594 227.542969 155.886719 227.359375 155.886719 Z M 148.6875 154.867188 L 226.554688 154.867188 L 222.148438 145.46875 L 153.464844 145.46875 Z M 148.6875 154.867188 " fill-opacity="1" fill-rule="nonzero"/><path fill="#6d6e80" d="M 214.089844 158.789062 C 213.359375 145.097656 201.988281 134.183594 188.117188 134.183594 C 174.1875 134.183594 162.78125 145.191406 162.136719 158.96875 C 161.902344 159.125 161.683594 159.308594 161.488281 159.511719 C 161.289062 159.71875 161.117188 159.941406 160.96875 160.183594 C 160.820312 160.425781 160.703125 160.679688 160.609375 160.949219 C 160.515625 161.21875 160.453125 161.492188 160.417969 161.773438 C 160.386719 162.054688 160.382812 162.339844 160.410156 162.621094 C 160.441406 162.902344 160.496094 163.179688 160.585938 163.449219 C 160.675781 163.71875 160.789062 163.976562 160.933594 164.222656 C 161.078125 164.46875 161.246094 164.695312 161.441406 164.902344 C 161.632812 165.109375 161.84375 165.296875 162.078125 165.457031 C 162.3125 165.621094 162.558594 165.753906 162.824219 165.863281 C 163.085938 165.972656 163.355469 166.050781 163.636719 166.097656 C 163.914062 166.148438 164.199219 166.167969 164.480469 166.15625 C 164.765625 166.144531 165.042969 166.101562 165.320312 166.03125 C 165.59375 165.957031 165.855469 165.855469 166.109375 165.726562 C 166.363281 165.597656 166.597656 165.441406 166.816406 165.261719 C 167.035156 165.082031 167.234375 164.878906 167.410156 164.65625 C 167.582031 164.429688 167.734375 164.191406 167.855469 163.9375 C 167.980469 163.679688 168.074219 163.414062 168.140625 163.136719 C 168.203125 162.863281 168.238281 162.582031 168.246094 162.296875 C 168.25 162.011719 168.222656 161.730469 168.167969 161.453125 C 168.109375 161.175781 168.027344 160.90625 167.910156 160.648438 C 167.796875 160.386719 167.65625 160.140625 167.488281 159.914062 C 167.320312 159.683594 167.128906 159.476562 166.914062 159.289062 C 166.703125 159.101562 166.472656 158.9375 166.222656 158.800781 C 166.269531 158.109375 166.34375 157.421875 166.453125 156.742188 C 166.5625 156.058594 166.703125 155.382812 166.875 154.714844 C 167.050781 154.046875 167.253906 153.386719 167.488281 152.734375 C 167.722656 152.085938 167.988281 151.449219 168.285156 150.824219 C 168.578125 150.199219 168.902344 149.589844 169.253906 148.996094 C 169.609375 148.402344 169.988281 147.824219 170.394531 147.265625 C 170.804688 146.707031 171.234375 146.171875 171.695312 145.652344 C 172.152344 145.136719 172.632812 144.640625 173.140625 144.167969 C 173.644531 143.699219 174.167969 143.25 174.71875 142.828125 C 175.265625 142.40625 175.828125 142.011719 176.414062 141.640625 C 177 141.273438 177.597656 140.933594 178.214844 140.621094 C 178.832031 140.308594 179.460938 140.027344 180.105469 139.773438 C 180.75 139.523438 181.402344 139.300781 182.066406 139.109375 C 182.730469 138.921875 183.402344 138.761719 184.082031 138.632812 C 184.761719 138.507812 185.445312 138.410156 186.132812 138.347656 C 186.820312 138.285156 187.511719 138.257812 188.203125 138.257812 C 188.894531 138.261719 189.582031 138.296875 190.269531 138.367188 C 190.957031 138.433594 191.640625 138.53125 192.320312 138.664062 C 193 138.796875 193.667969 138.960938 194.332031 139.15625 C 194.996094 139.351562 195.644531 139.578125 196.289062 139.835938 C 196.929688 140.09375 197.558594 140.382812 198.171875 140.699219 C 198.785156 141.015625 199.382812 141.359375 199.964844 141.730469 C 200.546875 142.105469 201.109375 142.503906 201.652344 142.929688 C 202.195312 143.359375 202.71875 143.808594 203.222656 144.285156 C 203.722656 144.761719 204.199219 145.257812 204.652344 145.777344 C 205.109375 146.300781 205.535156 146.839844 205.941406 147.402344 C 206.34375 147.964844 206.71875 148.542969 207.066406 149.140625 C 207.414062 149.734375 207.734375 150.347656 208.027344 150.976562 C 208.316406 151.601562 208.578125 152.242188 208.808594 152.894531 C 209.035156 153.542969 209.234375 154.207031 209.402344 154.875 C 209.570312 155.546875 209.707031 156.222656 209.808594 156.90625 C 209.914062 157.589844 209.984375 158.277344 210.023438 158.964844 C 209.789062 159.125 209.570312 159.304688 209.375 159.511719 C 209.179688 159.714844 209.007812 159.941406 208.859375 160.183594 C 208.710938 160.425781 208.589844 160.679688 208.496094 160.949219 C 208.40625 161.21875 208.34375 161.492188 208.308594 161.773438 C 208.277344 162.054688 208.273438 162.339844 208.300781 162.621094 C 208.332031 162.902344 208.390625 163.179688 208.476562 163.449219 C 208.566406 163.71875 208.683594 163.976562 208.828125 164.222656 C 208.972656 164.46875 209.140625 164.691406 209.335938 164.902344 C 209.527344 165.109375 209.742188 165.292969 209.976562 165.457031 C 210.207031 165.617188 210.457031 165.75 210.71875 165.859375 C 210.984375 165.964844 211.253906 166.046875 211.535156 166.09375 C 211.8125 166.140625 212.097656 166.160156 212.378906 166.148438 C 212.664062 166.136719 212.941406 166.09375 213.21875 166.019531 C 213.492188 165.945312 213.753906 165.84375 214.007812 165.714844 C 214.257812 165.585938 214.496094 165.429688 214.714844 165.246094 C 214.933594 165.066406 215.128906 164.863281 215.304688 164.636719 C 215.476562 164.414062 215.625 164.175781 215.75 163.917969 C 215.871094 163.660156 215.964844 163.394531 216.027344 163.117188 C 216.09375 162.839844 216.128906 162.5625 216.132812 162.277344 C 216.132812 161.992188 216.109375 161.710938 216.050781 161.433594 C 215.992188 161.15625 215.90625 160.886719 215.789062 160.628906 C 215.675781 160.367188 215.53125 160.125 215.363281 159.894531 C 215.195312 159.667969 215.003906 159.460938 214.789062 159.273438 C 214.574219 159.085938 214.34375 158.925781 214.09375 158.789062 Z M 214.089844 158.789062 " fill-opacity="1" fill-rule="nonzero"/><g fill="#ffffff" fill-opacity="1"><g transform="translate(123.712174, 122.838712)"><g><path d="M 4.046875 0 L 2.28125 -5.78125 L 2.234375 -5.78125 C 2.234375 -5.644531 2.238281 -5.4375 2.25 -5.15625 C 2.269531 -4.882812 2.285156 -4.59375 2.296875 -4.28125 C 2.316406 -3.96875 2.328125 -3.679688 2.328125 -3.421875 L 2.328125 0 L 0.921875 0 L 0.921875 -7.375 L 3.0625 -7.375 L 4.796875 -1.734375 L 4.828125 -1.734375 L 6.6875 -7.375 L 8.8125 -7.375 L 8.8125 0 L 7.359375 0 L 7.359375 -3.484375 C 7.359375 -3.722656 7.359375 -3.992188 7.359375 -4.296875 C 7.367188 -4.597656 7.378906 -4.882812 7.390625 -5.15625 C 7.410156 -5.425781 7.421875 -5.632812 7.421875 -5.78125 L 7.390625 -5.78125 L 5.484375 0 Z M 4.046875 0 "/></g></g></g><g fill="#ffffff" fill-opacity="1"><g transform="translate(138.792407, 122.838712)"><g><path d="M 5.4375 0 L 4.90625 -1.75 L 2.21875 -1.75 L 1.6875 0 L 0 0 L 2.609375 -7.40625 L 4.515625 -7.40625 L 7.125 0 Z M 4.53125 -3.0625 L 4 -4.78125 C 3.96875 -4.894531 3.921875 -5.039062 3.859375 -5.21875 C 3.804688 -5.394531 3.75 -5.578125 3.6875 -5.765625 C 3.632812 -5.953125 3.59375 -6.117188 3.5625 -6.265625 C 3.53125 -6.117188 3.484375 -5.941406 3.421875 -5.734375 C 3.367188 -5.535156 3.3125 -5.34375 3.25 -5.15625 C 3.195312 -4.976562 3.160156 -4.851562 3.140625 -4.78125 L 2.609375 -3.0625 Z M 4.53125 -3.0625 "/></g></g></g><g fill="#ffffff" fill-opacity="1"><g transform="translate(151.261339, 122.838712)"><g><path d="M 3.078125 -7.375 C 3.742188 -7.375 4.296875 -7.289062 4.734375 -7.125 C 5.171875 -6.96875 5.492188 -6.722656 5.703125 -6.390625 C 5.910156 -6.066406 6.015625 -5.660156 6.015625 -5.171875 C 6.015625 -4.828125 5.953125 -4.53125 5.828125 -4.28125 C 5.703125 -4.03125 5.535156 -3.816406 5.328125 -3.640625 C 5.117188 -3.460938 4.894531 -3.320312 4.65625 -3.21875 L 6.8125 0 L 5.078125 0 L 3.328125 -2.828125 L 2.484375 -2.828125 L 2.484375 0 L 0.921875 0 L 0.921875 -7.375 Z M 2.96875 -6.09375 L 2.484375 -6.09375 L 2.484375 -4.09375 L 3 -4.09375 C 3.507812 -4.09375 3.875 -4.179688 4.09375 -4.359375 C 4.320312 -4.535156 4.4375 -4.789062 4.4375 -5.125 C 4.4375 -5.46875 4.316406 -5.710938 4.078125 -5.859375 C 3.835938 -6.015625 3.46875 -6.09375 2.96875 -6.09375 Z M 2.96875 -6.09375 "/></g></g></g><g fill="#ffffff" fill-opacity="1"><g transform="translate(163.422757, 122.838712)"><g><path d="M 6.859375 0 L 5.078125 0 L 3.15625 -3.109375 L 2.484375 -2.625 L 2.484375 0 L 0.921875 0 L 0.921875 -7.375 L 2.484375 -7.375 L 2.484375 -4 C 2.585938 -4.144531 2.691406 -4.289062 2.796875 -4.4375 C 2.898438 -4.582031 3.003906 -4.722656 3.109375 -4.859375 L 5.109375 -7.375 L 6.84375 -7.375 L 4.265625 -4.109375 Z M 6.859375 0 "/></g></g></g><g fill="#ffffff" fill-opacity="1"><g transform="translate(175.624505, 122.838712)"><g><path d="M 5.171875 0 L 0.921875 0 L 0.921875 -7.375 L 5.171875 -7.375 L 5.171875 -6.09375 L 2.484375 -6.09375 L 2.484375 -4.46875 L 4.984375 -4.46875 L 4.984375 -3.1875 L 2.484375 -3.1875 L 2.484375 -1.296875 L 5.171875 -1.296875 Z M 5.171875 0 "/></g></g></g><g fill="#ffffff" fill-opacity="1"><g transform="translate(186.752498, 122.838712)"><g><path d="M 3.765625 0 L 2.203125 0 L 2.203125 -6.078125 L 0.203125 -6.078125 L 0.203125 -7.375 L 5.78125 -7.375 L 5.78125 -6.078125 L 3.765625 -6.078125 Z M 3.765625 0 "/></g></g></g><g fill="#ffffff" fill-opacity="1"><g transform="translate(198.07709, 122.838712)"><g><path d="M 3.28125 -7.375 C 4.226562 -7.375 4.921875 -7.164062 5.359375 -6.75 C 5.796875 -6.34375 6.015625 -5.785156 6.015625 -5.078125 C 6.015625 -4.753906 5.96875 -4.441406 5.875 -4.140625 C 5.78125 -3.847656 5.617188 -3.585938 5.390625 -3.359375 C 5.171875 -3.128906 4.878906 -2.945312 4.515625 -2.8125 C 4.148438 -2.6875 3.695312 -2.625 3.15625 -2.625 L 2.484375 -2.625 L 2.484375 0 L 0.921875 0 L 0.921875 -7.375 Z M 3.203125 -6.09375 L 2.484375 -6.09375 L 2.484375 -3.90625 L 3 -3.90625 C 3.289062 -3.90625 3.546875 -3.941406 3.765625 -4.015625 C 3.984375 -4.097656 4.148438 -4.21875 4.265625 -4.375 C 4.378906 -4.539062 4.4375 -4.753906 4.4375 -5.015625 C 4.4375 -5.378906 4.335938 -5.648438 4.140625 -5.828125 C 3.941406 -6.003906 3.628906 -6.09375 3.203125 -6.09375 Z M 3.203125 -6.09375 "/></g></g></g><g fill="#ffffff" fill-opacity="1"><g transform="translate(209.905794, 122.838712)"><g><path d="M 0.921875 0 L 0.921875 -7.375 L 2.484375 -7.375 L 2.484375 -1.296875 L 5.484375 -1.296875 L 5.484375 0 Z M 0.921875 0 "/></g></g></g><g fill="#ffffff" fill-opacity="1"><g transform="translate(221.084199, 122.838712)"><g><path d="M 5.4375 0 L 4.90625 -1.75 L 2.21875 -1.75 L 1.6875 0 L 0 0 L 2.609375 -7.40625 L 4.515625 -7.40625 L 7.125 0 Z M 4.53125 -3.0625 L 4 -4.78125 C 3.96875 -4.894531 3.921875 -5.039062 3.859375 -5.21875 C 3.804688 -5.394531 3.75 -5.578125 3.6875 -5.765625 C 3.632812 -5.953125 3.59375 -6.117188 3.5625 -6.265625 C 3.53125 -6.117188 3.484375 -5.941406 3.421875 -5.734375 C 3.367188 -5.535156 3.3125 -5.34375 3.25 -5.15625 C 3.195312 -4.976562 3.160156 -4.851562 3.140625 -4.78125 L 2.609375 -3.0625 Z M 4.53125 -3.0625 "/></g></g></g><g fill="#ffffff" fill-opacity="1"><g transform="translate(233.553132, 122.838712)"><g><path d="M 4.0625 -6.171875 C 3.757812 -6.171875 3.492188 -6.113281 3.265625 -6 C 3.035156 -5.882812 2.84375 -5.71875 2.6875 -5.5 C 2.53125 -5.28125 2.410156 -5.015625 2.328125 -4.703125 C 2.242188 -4.398438 2.203125 -4.054688 2.203125 -3.671875 C 2.203125 -3.148438 2.265625 -2.703125 2.390625 -2.328125 C 2.523438 -1.960938 2.726562 -1.679688 3 -1.484375 C 3.28125 -1.296875 3.632812 -1.203125 4.0625 -1.203125 C 4.363281 -1.203125 4.660156 -1.234375 4.953125 -1.296875 C 5.253906 -1.367188 5.582031 -1.46875 5.9375 -1.59375 L 5.9375 -0.28125 C 5.613281 -0.144531 5.289062 -0.0507812 4.96875 0 C 4.65625 0.0625 4.300781 0.09375 3.90625 0.09375 C 3.15625 0.09375 2.535156 -0.0625 2.046875 -0.375 C 1.554688 -0.6875 1.191406 -1.125 0.953125 -1.6875 C 0.710938 -2.257812 0.59375 -2.921875 0.59375 -3.671875 C 0.59375 -4.234375 0.664062 -4.742188 0.8125 -5.203125 C 0.96875 -5.671875 1.191406 -6.070312 1.484375 -6.40625 C 1.785156 -6.75 2.148438 -7.015625 2.578125 -7.203125 C 3.003906 -7.390625 3.5 -7.484375 4.0625 -7.484375 C 4.425781 -7.484375 4.789062 -7.4375 5.15625 -7.34375 C 5.53125 -7.25 5.882812 -7.117188 6.21875 -6.953125 L 5.71875 -5.6875 C 5.4375 -5.820312 5.15625 -5.9375 4.875 -6.03125 C 4.601562 -6.125 4.332031 -6.171875 4.0625 -6.171875 Z M 4.0625 -6.171875 "/></g></g></g><g fill="#ffffff" fill-opacity="1"><g transform="translate(245.477623, 122.838712)"><g><path d="M 5.171875 0 L 0.921875 0 L 0.921875 -7.375 L 5.171875 -7.375 L 5.171875 -6.09375 L 2.484375 -6.09375 L 2.484375 -4.46875 L 4.984375 -4.46875 L 4.984375 -3.1875 L 2.484375 -3.1875 L 2.484375 -1.296875 L 5.171875 -1.296875 Z M 5.171875 0 "/></g></g></g></svg>